<?xml version="1.0" encoding="UTF-8"?>
<svg xmlns="http://www.w3.org/2000/svg" xmlns:xlink="http://www.w3.org/1999/xlink" viewBox="-1.76 -1.76 179.68 179.68">
<defs>
<clipPath id="clip-0">
<path clip-rule="nonzero" d="M 0 0 L 175.019531 0 L 175.019531 175.019531 L 0 175.019531 Z M 0 0 "/>
</clipPath>
</defs>
<g clip-path="url(#clip-0)">
<path fill-rule="nonzero" fill="#C50100" fill-opacity="1" d="M 175.019531 87.507812 C 175.019531 135.839844 135.839844 175.019531 87.507812 175.019531 C 39.179688 175.019531 0 135.839844 0 87.507812 C 0 39.179688 39.179688 0 87.507812 0 C 135.839844 0 175.019531 39.179688 175.019531 87.507812 "/>
</g>
<path fill-rule="nonzero" fill="rgb(0%, 0%, 0%)" fill-opacity="1" d="M 108.628906 102.574219 L 77.808594 102.570312 C 76.214844 102.566406 75.339844 103.960938 75.144531 105.25 C 74.886719 106.953125 73.433594 108.019531 71.867188 108.082031 C 70.324219 108.140625 69.523438 109.257812 69.285156 110.613281 C 68.996094 112.257812 67.265625 113.175781 65.667969 113.019531 C 64.367188 112.886719 63.011719 113.441406 62.617188 114.710938 C 61.65625 117.765625 60.371094 116.832031 59.597656 118.066406 C 59.015625 119 58.078125 119.730469 56.894531 119.734375 L 50.390625 119.761719 C 49.371094 119.765625 48.277344 120.390625 48 121.421875 C 47.726562 122.445312 47.238281 123.523438 46.160156 123.871094 C 45.105469 124.207031 44.523438 124.859375 44.183594 125.917969 C 43.8125 127.089844 42.460938 127.847656 41.246094 127.84375 L 37.675781 127.828125 C 35.851562 127.824219 34.617188 126.207031 34.757812 124.492188 C 34.859375 123.25 35.34375 122.289062 36.519531 121.792969 C 37.8125 121.25 37.628906 120.046875 38.886719 119.355469 C 39.636719 118.945312 40.519531 118.382812 40.800781 117.519531 C 41.277344 116.0625 42.304688 114.707031 44 114.683594 L 47.90625 114.625 C 48.839844 114.613281 49.515625 113.761719 49.550781 113.035156 C 49.589844 112.179688 48.949219 111.1875 47.945312 111.1875 L 38.511719 111.183594 C 37.019531 111.183594 36.148438 112.28125 35.800781 113.574219 C 35.617188 114.253906 34.785156 115.085938 34.167969 115.273438 C 32.949219 115.640625 32.191406 116.230469 31.707031 117.398438 C 31.152344 118.738281 29.628906 118.730469 29.015625 119.960938 C 28.5625 120.875 27.96875 121.378906 27.078125 121.882812 C 26.273438 122.339844 25.660156 124.296875 23.546875 124.300781 L 19.222656 124.308594 C 17.035156 124.308594 15.5625 122.289062 16.007812 120.191406 C 15.753906 118.589844 16.457031 117.097656 17.925781 116.464844 C 20.4375 115.796875 19.304688 113.300781 22.589844 112.167969 C 23.578125 111.832031 24.105469 110.808594 24.417969 109.890625 C 24.824219 108.683594 26.027344 107.980469 27.226562 107.882812 C 29.078125 107.730469 30.121094 106.144531 29.996094 104.410156 C 29.835938 102.1875 31.730469 100.679688 33.847656 100.6875 L 44.691406 100.730469 C 46.261719 100.738281 47.832031 99.917969 47.867188 98.128906 L 47.914062 95.417969 C 47.9375 94.113281 48.820312 93.039062 50.023438 92.671875 C 51.015625 92.371094 51.605469 91.503906 51.515625 90.546875 C 51.417969 89.542969 50.589844 88.773438 49.5 88.769531 L 46.203125 88.753906 C 44.707031 88.746094 43.136719 87.53125 43.125 85.976562 L 43.097656 82.367188 C 43.082031 80.597656 44.433594 79.523438 46.078125 79.238281 C 47.105469 79.058594 47.855469 77.890625 47.863281 76.832031 C 47.875 75.015625 49.121094 73.386719 51.054688 73.382812 L 56.050781 73.375 C 57.828125 73.371094 59.304688 74.902344 59.347656 76.667969 L 59.460938 81.675781 C 59.488281 83.011719 61.003906 83.625 62.09375 83.527344 C 63.417969 83.410156 64.269531 82.566406 64.539062 81.152344 C 64.761719 79.960938 65.996094 78.601562 67.449219 78.597656 L 96.5625 78.550781 C 97.179688 78.546875 97.667969 77.796875 97.734375 77.386719 C 97.820312 76.890625 97.460938 75.996094 96.785156 75.988281 L 88.996094 75.914062 C 87.089844 75.894531 85.832031 74.5625 85.488281 72.816406 C 85.234375 71.539062 83.925781 70.804688 82.707031 70.800781 L 74.972656 70.789062 C 73.773438 70.785156 72.859375 70 72.277344 69.054688 C 71.4375 68.695312 70.847656 68.191406 70.433594 67.390625 C 70.367188 66.847656 70.363281 66.320312 70.582031 65.882812 C 70.753906 65.53125 71.433594 65.070312 71.898438 65.070312 L 78.25 65.070312 C 78.601562 65.070312 79.007812 64.703125 79.027344 64.378906 C 79.050781 63.957031 78.707031 63.601562 78.234375 63.597656 L 69.5 63.570312 C 68.054688 63.566406 66.808594 62.78125 66.230469 61.503906 C 65.128906 61.09375 64.28125 60.320312 64.082031 59.15625 C 63.859375 57.890625 64.714844 56.757812 66.023438 56.757812 L 73.761719 56.757812 C 74.164062 56.757812 74.566406 56.480469 74.617188 56.132812 C 74.675781 55.769531 74.292969 55.285156 73.859375 55.28125 L 63.792969 55.246094 C 62.257812 55.238281 61.003906 54.371094 60.433594 53.070312 C 58.851562 52.542969 57.785156 51.191406 57.929688 49.527344 C 58.039062 48.253906 59.078125 47.183594 60.414062 47.183594 L 78.191406 47.175781 C 79.8125 47.171875 81.167969 48.070312 81.839844 49.515625 L 82.925781 50.160156 C 83.824219 50.691406 84.480469 51.570312 85.234375 52.308594 L 87.921875 54.941406 C 89.710938 54.921875 90.011719 56.226562 91.425781 57.132812 L 102.347656 68.019531 L 102.753906 68.65625 C 104.597656 69.480469 105.5 71.230469 105.523438 73.242188 L 105.558594 76.160156 C 105.574219 77.683594 107.195312 78.65625 108.515625 78.503906 C 110.015625 78.332031 110.960938 77.027344 110.867188 75.472656 C 110.820312 74.703125 110.507812 73.84375 109.816406 73.492188 C 108.667969 72.90625 108.074219 71.960938 108.042969 70.648438 C 108 69.003906 109.113281 67.40625 110.90625 67.371094 L 115.285156 67.28125 C 116.316406 67.261719 117.027344 66.289062 117.023438 65.433594 C 117.015625 64.542969 116.328125 63.558594 115.296875 63.546875 L 111.421875 63.5 C 109.238281 63.472656 107.789062 61.699219 107.84375 59.609375 C 107.882812 58.160156 106.480469 56.9375 105.074219 56.925781 L 101.769531 56.902344 C 99.625 56.691406 98.113281 54.769531 98.476562 52.617188 C 98.144531 50.46875 99.785156 48.640625 101.957031 48.644531 L 115.527344 48.644531 C 117.855469 48.644531 119.320312 50.375 119.382812 52.628906 C 119.425781 54.269531 121.191406 55.242188 122.761719 55.042969 C 124.910156 54.769531 127.203125 56.03125 127.25 58.28125 L 127.339844 62.566406 C 127.367188 63.8125 128.585938 65.050781 129.867188 65.054688 L 136.011719 65.078125 C 137.199219 65.082031 138.460938 65.480469 139.167969 66.460938 C 139.613281 67.078125 140.144531 67.480469 140.886719 67.664062 C 142.078125 67.957031 142.777344 68.945312 143.117188 70.109375 C 143.46875 71.320312 145.054688 70.820312 145.804688 73.113281 C 146.089844 73.976562 146.988281 74.339844 147.84375 74.527344 C 149.269531 74.847656 150.566406 76.199219 150.589844 77.707031 L 150.648438 81.519531 C 150.675781 83.113281 149.671875 84.785156 148.011719 85.046875 C 146.722656 85.25 145.796875 85.945312 145.53125 87.292969 C 145.25 88.707031 143.878906 89.792969 142.371094 89.796875 L 131.386719 89.835938 C 129.667969 89.839844 128.769531 91.53125 128.757812 92.976562 C 128.742188 94.84375 129.855469 96.101562 131.710938 96.105469 L 140.316406 96.117188 C 141.640625 96.121094 143.085938 97.347656 143.226562 98.621094 C 143.417969 100.371094 144.519531 101.542969 146.335938 101.546875 L 150.132812 101.558594 C 151.273438 101.5625 152.585938 102.519531 152.855469 103.640625 C 153.679688 107.078125 156.324219 105.152344 158.128906 106.902344 C 158.902344 107.648438 159.089844 108.539062 159.089844 109.726562 C 159.089844 111.273438 158.035156 112.988281 156.296875 113 L 150.4375 113.035156 C 148.351562 113.046875 147.863281 111.410156 147.007812 110.925781 C 146.511719 110.644531 146.039062 110.320312 145.878906 109.816406 C 145.515625 108.675781 144.574219 108.089844 143.398438 108.074219 L 140.890625 108.03125 C 139.546875 108.011719 138.101562 106.785156 137.949219 105.375 C 137.796875 103.96875 137.003906 102.582031 135.398438 102.582031 L 126.828125 102.578125 C 125.894531 102.578125 125.234375 103.523438 125.242188 104.265625 C 125.253906 105.171875 125.96875 105.976562 126.960938 105.988281 L 132.046875 106.042969 C 133.835938 106.0625 134.945312 107.648438 135.277344 109.238281 C 135.464844 110.140625 136.535156 110.804688 137.402344 110.820312 L 139.59375 110.851562 C 141.96875 110.886719 143.324219 112.601562 143.308594 114.878906 C 143.292969 116.597656 142.46875 118.726562 140.441406 118.75 L 134.445312 118.828125 C 132.972656 118.84375 131.457031 118.066406 130.992188 116.617188 C 130.609375 115.433594 129.832031 114.351562 128.429688 114.335938 L 125.367188 114.296875 C 123.414062 114.277344 122.164062 112.765625 121.976562 110.929688 C 121.855469 109.765625 120.640625 108.75 119.503906 108.738281 L 114.488281 108.683594 C 112.722656 108.667969 111.292969 107.160156 111.234375 105.375 C 111.1875 104.054688 110.277344 102.574219 108.628906 102.574219 "/>
</svg>