<?xml version="1.0" encoding="UTF-8"?>
<svg xmlns="http://www.w3.org/2000/svg" xmlns:xlink="http://www.w3.org/1999/xlink" viewBox="-3.81 -3.81 388.25 222.17">
<defs>
<clipPath id="clip-0">
<path clip-rule="nonzero" d="M 0.277344 0 L 379.722656 0 L 379.722656 213.808594 L 0.277344 213.808594 Z M 0.277344 0 "/>
</clipPath>
</defs>
<g clip-path="url(#clip-0)">
<path fill-rule="nonzero" fill="currentColor" fill-opacity="1" d="M 245.980469 146.828125 L 164.285156 146.816406 C 160.070312 146.816406 157.75 150.511719 157.234375 153.925781 C 156.550781 158.441406 152.691406 161.269531 148.542969 161.429688 C 144.449219 161.585938 142.332031 164.550781 141.699219 168.136719 C 140.929688 172.496094 136.34375 174.9375 132.109375 174.515625 C 128.667969 174.171875 125.078125 175.636719 124.023438 178.996094 C 121.480469 187.101562 118.074219 184.625 116.023438 187.898438 C 114.476562 190.371094 111.992188 192.308594 108.851562 192.320312 L 91.625 192.386719 C 88.914062 192.398438 86.011719 194.050781 85.28125 196.792969 C 84.558594 199.5 83.269531 202.359375 80.410156 203.277344 C 77.617188 204.175781 76.074219 205.894531 75.171875 208.707031 C 74.179688 211.808594 70.601562 213.820312 67.378906 213.808594 L 57.917969 213.773438 C 53.082031 213.753906 49.8125 209.46875 50.183594 204.933594 C 50.453125 201.632812 51.738281 199.085938 54.855469 197.773438 C 58.277344 196.335938 57.796875 193.148438 61.132812 191.3125 C 63.117188 190.222656 65.457031 188.738281 66.207031 186.449219 C 67.464844 182.582031 70.1875 178.996094 74.679688 178.925781 L 85.03125 178.773438 C 87.503906 178.738281 89.300781 176.492188 89.394531 174.558594 C 89.503906 172.296875 87.796875 169.660156 85.136719 169.660156 L 60.136719 169.65625 C 56.183594 169.65625 53.871094 172.5625 52.945312 175.992188 C 52.460938 177.785156 50.257812 179.996094 48.621094 180.492188 C 45.398438 181.460938 43.378906 183.027344 42.101562 186.121094 C 40.628906 189.675781 36.597656 189.660156 34.972656 192.914062 C 33.761719 195.335938 32.191406 196.675781 29.835938 198.011719 C 27.703125 199.21875 26.070312 204.410156 20.472656 204.417969 L 9.007812 204.433594 C 3.210938 204.441406 -0.6875 199.082031 0.488281 193.53125 C -0.183594 189.289062 1.675781 185.332031 5.578125 183.65625 C 12.226562 181.878906 9.222656 175.261719 17.941406 172.265625 C 20.554688 171.367188 21.957031 168.65625 22.777344 166.222656 C 23.859375 163.023438 27.050781 161.164062 30.226562 160.902344 C 35.136719 160.5 37.894531 156.300781 37.5625 151.695312 C 37.140625 145.808594 42.15625 141.808594 47.769531 141.832031 L 76.511719 141.949219 C 80.679688 141.964844 84.839844 139.792969 84.929688 135.058594 L 85.058594 127.863281 C 85.121094 124.410156 87.453125 121.558594 90.652344 120.589844 C 93.277344 119.796875 94.84375 117.496094 94.601562 114.960938 C 94.347656 112.292969 92.148438 110.257812 89.265625 110.246094 L 80.519531 110.207031 C 76.554688 110.1875 72.398438 106.957031 72.363281 102.84375 L 72.289062 93.273438 C 72.253906 88.582031 75.828125 85.742188 80.1875 84.984375 C 82.910156 84.511719 84.90625 81.410156 84.925781 78.609375 C 84.957031 73.792969 88.253906 69.472656 93.378906 69.464844 L 106.625 69.441406 C 111.332031 69.433594 115.25 73.488281 115.355469 78.175781 L 115.65625 91.449219 C 115.734375 94.984375 119.757812 96.605469 122.640625 96.351562 C 126.144531 96.039062 128.410156 93.800781 129.117188 90.054688 C 129.710938 86.898438 132.980469 83.296875 136.832031 83.289062 L 213.992188 83.15625 C 215.632812 83.152344 216.929688 81.164062 217.109375 80.078125 C 217.328125 78.757812 216.378906 76.386719 214.589844 76.367188 L 193.949219 76.167969 C 188.894531 76.117188 185.558594 72.589844 184.640625 67.960938 C 183.96875 64.582031 180.5 62.625 177.269531 62.621094 L 156.769531 62.585938 C 153.59375 62.582031 151.171875 60.496094 149.625 57.996094 C 147.398438 57.042969 145.84375 55.707031 144.738281 53.582031 C 144.566406 52.144531 144.558594 50.746094 145.132812 49.582031 C 145.597656 48.648438 147.390625 47.425781 148.625 47.425781 L 165.460938 47.433594 C 166.390625 47.433594 167.46875 46.457031 167.519531 45.605469 C 167.582031 44.484375 166.671875 43.535156 165.417969 43.53125 L 142.265625 43.460938 C 138.4375 43.449219 135.132812 41.363281 133.601562 37.976562 C 130.683594 36.894531 128.441406 34.847656 127.902344 31.753906 C 127.320312 28.40625 129.585938 25.402344 133.054688 25.402344 L 153.570312 25.394531 C 154.632812 25.394531 155.691406 24.667969 155.835938 23.746094 C 155.984375 22.785156 154.96875 21.492188 153.828125 21.488281 L 127.148438 21.390625 C 123.078125 21.378906 119.746094 19.074219 118.242188 15.625 C 114.042969 14.226562 111.222656 10.644531 111.601562 6.230469 C 111.886719 2.855469 114.648438 0.0273438 118.183594 0.0273438 L 165.304688 0 C 169.605469 -0.00390625 173.191406 2.378906 174.976562 6.207031 L 177.855469 7.910156 C 180.238281 9.324219 181.976562 11.652344 183.976562 13.613281 L 191.097656 20.585938 C 195.835938 20.53125 196.632812 23.996094 200.386719 26.394531 L 229.328125 55.246094 L 230.40625 56.933594 C 235.292969 59.117188 237.683594 63.753906 237.746094 69.09375 L 237.835938 76.828125 C 237.886719 80.859375 242.183594 83.441406 245.679688 83.039062 C 249.652344 82.582031 252.164062 79.121094 251.910156 75.003906 C 251.785156 72.964844 250.953125 70.6875 249.125 69.753906 C 246.082031 68.203125 244.511719 65.691406 244.425781 62.210938 C 244.3125 57.859375 247.261719 53.625 252.015625 53.53125 L 263.621094 53.292969 C 266.355469 53.238281 268.242188 50.667969 268.226562 48.398438 C 268.207031 46.039062 266.386719 43.421875 263.652344 43.390625 L 253.375 43.265625 C 247.597656 43.195312 243.753906 38.496094 243.898438 32.960938 C 244 29.117188 240.285156 25.871094 236.554688 25.84375 L 227.804688 25.777344 C 222.113281 25.222656 218.113281 20.128906 219.070312 14.421875 C 218.183594 8.730469 222.539062 3.890625 228.292969 3.902344 L 264.257812 3.894531 C 270.429688 3.894531 274.316406 8.480469 274.480469 14.460938 C 274.601562 18.808594 279.269531 21.378906 283.4375 20.847656 C 289.132812 20.125 295.214844 23.46875 295.335938 29.4375 L 295.574219 40.792969 C 295.640625 44.097656 298.875 47.378906 302.273438 47.394531 L 318.554688 47.449219 C 321.703125 47.460938 325.042969 48.515625 326.917969 51.121094 C 328.097656 52.757812 329.507812 53.816406 331.480469 54.300781 C 334.636719 55.078125 336.492188 57.703125 337.390625 60.792969 C 338.324219 64 342.519531 62.675781 344.515625 68.746094 C 345.269531 71.035156 347.652344 71.996094 349.917969 72.5 C 353.699219 73.347656 357.132812 76.929688 357.195312 80.921875 L 357.351562 91.027344 C 357.417969 95.257812 354.765625 99.691406 350.363281 100.382812 C 346.941406 100.917969 344.496094 102.753906 343.785156 106.332031 C 343.042969 110.085938 339.402344 112.953125 335.40625 112.96875 L 306.292969 113.070312 C 301.738281 113.085938 299.363281 117.566406 299.328125 121.394531 C 299.289062 126.351562 302.238281 129.683594 307.160156 129.691406 L 329.964844 129.722656 C 333.472656 129.726562 337.308594 132.976562 337.675781 136.355469 C 338.179688 140.992188 341.109375 144.097656 345.921875 144.113281 L 355.984375 144.144531 C 359.011719 144.152344 362.484375 146.6875 363.195312 149.65625 C 365.386719 158.769531 372.386719 153.671875 377.175781 158.304688 C 379.222656 160.285156 379.71875 162.644531 379.722656 165.789062 C 379.726562 169.890625 376.929688 174.4375 372.320312 174.464844 L 356.785156 174.554688 C 351.257812 174.585938 349.972656 170.257812 347.699219 168.96875 C 346.386719 168.226562 345.136719 167.371094 344.707031 166.027344 C 343.742188 163.007812 341.253906 161.457031 338.132812 161.40625 L 331.488281 161.296875 C 327.929688 161.242188 324.097656 157.992188 323.691406 154.257812 C 323.285156 150.53125 321.183594 146.851562 316.925781 146.851562 L 294.214844 146.84375 C 291.734375 146.84375 289.992188 149.347656 290.011719 151.316406 C 290.039062 153.722656 291.941406 155.847656 294.5625 155.878906 L 308.050781 156.023438 C 312.792969 156.078125 315.730469 160.285156 316.609375 164.5 C 317.105469 166.890625 319.941406 168.652344 322.246094 168.6875 L 328.042969 168.773438 C 334.347656 168.863281 337.9375 173.410156 337.890625 179.441406 C 337.855469 184.003906 335.671875 189.644531 330.296875 189.710938 L 314.410156 189.910156 C 310.503906 189.960938 306.484375 187.898438 305.25 184.054688 C 304.238281 180.914062 302.179688 178.046875 298.457031 178.003906 L 290.347656 177.910156 C 285.167969 177.847656 281.855469 173.851562 281.355469 168.980469 C 281.039062 165.894531 277.808594 163.199219 274.796875 163.167969 L 261.507812 163.03125 C 256.832031 162.984375 253.046875 158.988281 252.882812 154.257812 C 252.765625 150.757812 250.34375 146.832031 245.980469 146.828125 "/>
</g>
</svg>