<?xml version="1.0" encoding="UTF-8"?>
<svg xmlns="http://www.w3.org/2000/svg" xmlns:xlink="http://www.w3.org/1999/xlink" viewBox="-6.47 -1.67 659.74 108.94">
<defs>
<clipPath id="clip-0">
<path clip-rule="nonzero" d="M 0.875 4 L 32 4 L 32 101 L 0.875 101 Z M 0.875 4 "/>
</clipPath>
<clipPath id="clip-1">
<path clip-rule="nonzero" d="M 596 4 L 645.375 4 L 645.375 54 L 596 54 Z M 596 4 "/>
</clipPath>
</defs>
<path fill-rule="nonzero" fill="currentColor" fill-opacity="1" d="M 298.113281 72.535156 C 294.105469 83.367188 285.5 89.832031 275.097656 89.832031 C 272.441406 89.832031 269.707031 89.410156 266.984375 88.574219 C 256.941406 85.507812 249.585938 75.023438 247.304688 60.539062 C 244.652344 43.65625 249.671875 26.5625 259.242188 19.886719 C 263.484375 16.933594 268.355469 15.371094 273.324219 15.371094 C 282.9375 15.371094 291.671875 21.03125 296.128906 30.152344 C 302.515625 43.238281 303.238281 58.6875 298.113281 72.535156 M 274.054688 4.9375 C 247.753906 4.9375 226.355469 26.332031 226.355469 52.625 C 226.355469 78.921875 247.753906 100.3125 274.054688 100.3125 C 300.359375 100.3125 321.757812 78.921875 321.757812 52.625 C 321.757812 26.332031 300.359375 4.9375 274.054688 4.9375 "/>
<path fill-rule="nonzero" fill="currentColor" fill-opacity="1" d="M 479.457031 7.222656 C 482.582031 10.960938 484.65625 14.273438 484.640625 18.289062 L 484.441406 68.113281 L 435.65625 4.984375 L 412.929688 5.035156 L 414.800781 7.226562 C 417.664062 10.578125 419.507812 13.496094 419.847656 17.574219 L 419.828125 86.882812 C 419.824219 91.1875 417.726562 94.136719 414.519531 98.148438 L 412.792969 100.3125 L 439.792969 100.3125 L 437.671875 98.066406 C 433.960938 94.136719 432.289062 90.570312 432.09375 86.195312 L 432.253906 33.417969 L 483.960938 100.269531 L 496.808594 100.175781 L 496.8125 19.027344 C 496.8125 14.683594 498.378906 11.054688 501.890625 7.25 L 503.957031 5.015625 L 477.636719 5.039062 Z M 479.457031 7.222656 "/>
<path fill-rule="nonzero" fill="currentColor" fill-opacity="1" d="M 102.574219 7.175781 C 105.695312 10.917969 107.773438 14.230469 107.757812 18.246094 L 107.558594 68.101562 L 58.75 4.9375 L 36.015625 4.992188 L 37.886719 7.179688 C 40.75 10.535156 42.59375 13.453125 42.933594 17.535156 L 42.914062 86.875 C 42.914062 91.183594 40.8125 94.136719 37.605469 98.148438 L 35.878906 100.3125 L 62.886719 100.3125 L 60.765625 98.066406 C 57.050781 94.136719 55.382812 90.566406 55.1875 86.191406 L 55.347656 33.382812 L 107.078125 100.269531 L 119.929688 100.175781 L 119.933594 18.988281 C 119.9375 14.644531 121.503906 11.011719 125.015625 7.207031 L 127.078125 4.96875 L 100.75 4.996094 Z M 102.574219 7.175781 "/>
<path fill-rule="nonzero" fill="currentColor" fill-opacity="1" d="M 197.09375 7.175781 C 200.21875 10.917969 202.296875 14.230469 202.277344 18.246094 L 202.078125 68.101562 L 153.269531 4.9375 L 130.539062 4.992188 L 132.40625 7.179688 C 135.269531 10.535156 137.113281 13.453125 137.453125 17.535156 L 137.4375 86.875 C 137.433594 91.179688 135.332031 94.132812 132.125 98.152344 L 130.398438 100.3125 L 157.40625 100.3125 L 155.285156 98.066406 C 151.574219 94.136719 149.902344 90.566406 149.707031 86.191406 L 149.867188 33.382812 L 201.597656 100.269531 L 214.449219 100.175781 L 214.457031 18.988281 C 214.457031 14.644531 216.023438 11.011719 219.535156 7.207031 L 221.597656 4.96875 L 195.273438 4.996094 Z M 197.09375 7.175781 "/>
<g clip-path="url(#clip-0)">
<path fill-rule="nonzero" fill="currentColor" fill-opacity="1" d="M 29.667969 96.777344 C 27.800781 93.972656 26.035156 91.320312 26.035156 88.128906 L 26.050781 17.023438 C 26.050781 14.003906 27.613281 11.421875 29.417969 8.429688 L 31.464844 4.980469 L 1.367188 5.054688 L 2.839844 7.433594 C 5.042969 10.984375 6.945312 14.054688 6.949219 17.726562 L 6.960938 87.441406 C 6.960938 91.507812 4.707031 94.765625 2.320312 98.214844 L 0.875 100.300781 L 31.953125 100.3125 L 30.640625 98.261719 C 30.320312 97.769531 29.996094 97.273438 29.667969 96.777344 "/>
</g>
<path fill-rule="nonzero" fill="currentColor" fill-opacity="1" d="M 401.550781 78.785156 C 399.429688 81.011719 397.429688 83.109375 394.78125 84.847656 C 390.074219 87.933594 384.574219 89.566406 378.867188 89.566406 C 374.105469 89.566406 369.367188 88.386719 365.175781 86.167969 C 351.453125 78.898438 342.871094 54.769531 352.492188 31.773438 C 356.519531 22.152344 364.671875 16.300781 374.863281 15.714844 C 375.710938 15.664062 376.554688 15.640625 377.402344 15.640625 C 385.164062 15.640625 391.394531 17.804688 395.921875 22.078125 L 406.4375 32.003906 L 406.460938 10.761719 L 405.613281 10.433594 C 396.484375 6.839844 386.808594 4.9375 377.632812 4.9375 C 366.40625 4.9375 350.632812 7.753906 339.238281 21.171875 C 330.949219 30.921875 327.222656 43.839844 328.457031 58.53125 C 330.167969 78.925781 343.988281 94.765625 363.660156 98.875 C 368.222656 99.828125 372.953125 100.3125 377.710938 100.3125 C 387.066406 100.3125 396.632812 98.480469 406.15625 94.871094 L 406.976562 94.558594 L 407.851562 72.652344 L 405.488281 74.839844 C 404.027344 76.191406 402.765625 77.511719 401.550781 78.785156 "/>
<path fill-rule="nonzero" fill="currentColor" fill-opacity="1" d="M 508.699219 4.984375 L 508.746094 24.757812 L 510.949219 22.828125 C 514.03125 20.125 516.636719 18.105469 520 16.453125 L 537.125 15.800781 L 537.128906 86.613281 C 537.128906 90.871094 534.667969 94.226562 531.824219 98.113281 L 530.210938 100.3125 L 562.621094 100.273438 L 561.222656 98.203125 C 558.335938 93.925781 556.90625 91.503906 556.285156 88.011719 L 556.289062 15.730469 C 557.289062 15.710938 558.265625 15.679688 559.214844 15.65625 C 560.910156 15.609375 562.527344 15.5625 564.089844 15.5625 C 571.6875 15.5625 577.089844 16.746094 582.21875 22.789062 L 584.554688 25.542969 L 584.621094 5.007812 Z M 508.699219 4.984375 "/>
<g clip-path="url(#clip-1)">
<path fill-rule="nonzero" fill="currentColor" fill-opacity="1" d="M 633.851562 42.007812 C 633.804688 41.277344 633.25 40.84375 632.507812 40.289062 C 631.976562 39.855469 631.496094 39.359375 631.058594 38.796875 C 630.789062 38.453125 630.03125 37.355469 627.996094 34.097656 C 627.03125 32.550781 626.453125 31.605469 626.113281 31.027344 C 627.675781 30.171875 628.890625 28.914062 629.730469 27.269531 C 630.132812 26.460938 630.359375 25.453125 630.390625 24.242188 L 630.390625 23.722656 C 630.390625 20.796875 629.242188 18.554688 626.976562 17.054688 C 625.949219 16.367188 624.835938 15.933594 623.671875 15.757812 C 622.636719 15.605469 620.5 15.5 617.144531 15.4375 L 609.769531 15.269531 C 612.839844 12.855469 616.699219 11.402344 620.898438 11.402344 C 630.855469 11.402344 638.957031 19.503906 638.957031 29.457031 C 638.957031 34.335938 637.003906 38.757812 633.851562 42.007812 M 618.660156 27.644531 L 618.660156 20.328125 L 619.078125 20.355469 C 620.597656 20.496094 620.953125 20.570312 621.070312 20.609375 C 621.078125 20.613281 621.296875 20.683594 621.722656 21.132812 C 622.074219 21.507812 622.339844 21.882812 622.496094 22.214844 C 622.710938 22.707031 622.820312 23.304688 622.820312 23.984375 C 622.820312 25.015625 622.617188 25.816406 622.199219 26.382812 C 621.902344 26.796875 621.578125 27.085938 621.222656 27.25 C 620.945312 27.378906 620.371094 27.546875 619.195312 27.605469 Z M 609.421875 15.53125 L 610.273438 17.234375 C 610.425781 17.535156 611.347656 19.265625 611.480469 19.523438 L 611.4375 29.621094 L 611.351562 39.722656 L 610.9375 40.410156 C 610.265625 41.507812 610.132812 41.765625 610.132812 42.1875 C 610.132812 43.605469 610.609375 43.605469 615.15625 43.605469 C 619.707031 43.605469 620.183594 43.605469 620.183594 42.1875 C 620.183594 41.78125 620.121094 41.675781 619.347656 40.339844 C 619.019531 39.78125 618.957031 39.570312 618.945312 39.523438 C 618.9375 39.5 618.878906 39.25 618.878906 38.367188 C 618.878906 36.980469 618.835938 35.492188 618.746094 33.917969 L 618.691406 32.660156 C 618.925781 32.972656 619.570312 33.949219 621.355469 36.996094 C 624.457031 42.253906 624.792969 42.5625 625.097656 42.832031 C 625.574219 43.214844 626.101562 43.449219 626.664062 43.527344 C 626.941406 43.566406 627.492188 43.605469 629.496094 43.605469 C 630.625 43.605469 631.511719 43.601562 632.183594 43.53125 C 629.089844 46.015625 625.167969 47.511719 620.898438 47.511719 C 610.945312 47.511719 602.84375 39.414062 602.84375 29.457031 C 602.84375 23.859375 605.40625 18.847656 609.421875 15.53125 M 620.898438 4.984375 C 607.40625 4.984375 596.425781 15.964844 596.425781 29.457031 C 596.425781 42.953125 607.40625 53.933594 620.898438 53.933594 C 634.394531 53.933594 645.375 42.953125 645.375 29.457031 C 645.375 15.964844 634.394531 4.984375 620.898438 4.984375 "/>
</g>
</svg>